<svg xmlns="http://www.w3.org/2000/svg" width="22.628" height="22.628" viewBox="0 0 22.628 22.628">
  <g id="Group_20" data-name="Group 20" transform="translate(-319.186 -8.186)">
    <g id="Union_1" data-name="Union 1" transform="translate(3830.186 142.186)" fill="#fff">
      <path d="M -3491.908203125 -112.0794067382812 L -3499.3330078125 -119.5041046142578 L -3499.6865234375 -119.8576507568359 L -3500.0400390625 -119.5041046142578 L -3507.46484375 -112.0794525146484 L -3510.29296875 -114.9083633422852 L -3502.86865234375 -122.332649230957 L -3502.51513671875 -122.6862030029297 L -3502.86865234375 -123.0397567749023 L -3510.29296875 -130.4640502929688 L -3507.46484375 -133.29296875 L -3500.039794921875 -125.8684844970703 L -3499.686279296875 -125.5149536132812 L -3499.332763671875 -125.8684921264648 L -3491.908203125 -133.2930450439453 L -3489.079345703125 -130.4648590087891 L -3496.504150390625 -123.0400314331055 L -3496.857666015625 -122.6864624023438 L -3496.504150390625 -122.3329162597656 L -3489.0791015625 -114.9084014892578 L -3491.908203125 -112.0794067382812 Z" stroke="none"/>
      <path d="M -3491.908203125 -112.786506652832 L -3489.786376953125 -114.9083862304688 L -3496.857666015625 -121.9793395996094 L -3497.56494140625 -122.6864547729492 L -3496.857666015625 -123.3935852050781 L -3489.786376953125 -130.4648132324219 L -3491.908203125 -132.5859832763672 L -3498.979248046875 -125.5149307250977 L -3499.686279296875 -124.8078536987305 L -3500.393310546875 -125.5149154663086 L -3507.46484375 -132.5858154296875 L -3509.5859375 -130.464111328125 L -3502.51513671875 -123.393310546875 L -3501.807861328125 -122.6862030029297 L -3502.51513671875 -121.9790954589844 L -3509.5859375 -114.9083023071289 L -3507.46484375 -112.7866058349609 L -3500.3935546875 -119.857666015625 L -3499.6865234375 -120.5647659301758 L -3498.9794921875 -119.857666015625 L -3491.908203125 -112.786506652832 M -3491.908203125 -111.3722991943359 L -3499.6865234375 -119.1505508422852 L -3507.46484375 -111.3722991943359 L -3511 -114.9084014892578 L -3503.22216796875 -122.6862030029297 L -3511 -130.4640045166016 L -3507.46484375 -134.0001068115234 L -3499.686279296875 -126.2220458984375 L -3491.908203125 -134.0001068115234 L -3488.3720703125 -130.4649047851562 L -3496.150634765625 -122.6864700317383 L -3488.3720703125 -114.9084014892578 L -3491.908203125 -111.3722991943359 Z" stroke="none" fill="#707070"/>
    </g>
  </g>
</svg>
